<?xml version="1.0" encoding="UTF-8" standalone="no"?>
<!DOCTYPE svg PUBLIC "-//W3C//DTD SVG 1.1//EN" "http://www.w3.org/Graphics/SVG/1.1/DTD/svg11.dtd">
<!-- Created with Vectornator (http://vectornator.io/) -->
<svg height="100%" stroke-miterlimit="10" style="fill-rule:nonzero;clip-rule:evenodd;stroke-linecap:round;stroke-linejoin:round;" version="1.1" viewBox="0 0 141.75 42.525" width="100%" xml:space="preserve" xmlns="http://www.w3.org/2000/svg" xmlns:vectornator="http://vectornator.io" xmlns:xlink="http://www.w3.org/1999/xlink">
<defs>
<clipPath id="TextBounds">
<rect height="1" width="109.883" x="136.953" y="172.663"/>
</clipPath>
<clipPath id="TextBounds_2">
<rect height="35.4173" width="177.143" x="97.3302" y="152.844"/>
</clipPath>
<clipPath id="TextBounds_3">
<rect height="42.525" width="141.75" x="0" y="0"/>
</clipPath>
</defs>
<clipPath id="ArtboardFrame">
<rect height="42.525" width="141.75" x="0" y="0"/>
</clipPath>
<g clip-path="url(#ArtboardFrame)" id="Слой-1" vectornator:layerName="Слой 1">
<g fill="#000000" opacity="1" stroke="none"/>
<g fill="#6c6589" opacity="1" stroke="none"/>
<g fill="#6c6589" opacity="1" stroke="none">
<path clip-path="url(#TextBounds_3)" d="M13.295 31.14C12.4083 31.0933 11.5275 31.0583 10.6525 31.035C9.7775 31.0117 8.89667 31 8.01 31C7.14667 31 6.28917 31.0117 5.4375 31.035C4.58583 31.0583 3.705 31.0933 2.795 31.14L2.795 30.72C3.65833 30.65 4.34083 30.5217 4.8425 30.335C5.34417 30.1483 5.7175 29.8567 5.9625 29.46C6.2075 29.0633 6.35917 28.5442 6.4175 27.9025C6.47583 27.2608 6.505 26.45 6.505 25.47L6.505 13.78C6.505 12.8 6.47583 11.9892 6.4175 11.3475C6.35917 10.7058 6.2075 10.1867 5.9625 9.79C5.7175 9.39333 5.35 9.10167 4.86 8.915C4.37 8.72833 3.705 8.6 2.865 8.53L2.865 8.11C3.635 8.15667 4.405 8.19167 5.175 8.215C5.945 8.23833 6.715 8.25 7.485 8.25C8.605 8.25 9.7075 8.19167 10.7925 8.075C11.8775 7.95833 12.98 7.9 14.1 7.9C14.9633 7.9 15.8675 8.0575 16.8125 8.3725C17.7575 8.6875 18.6267 9.1425 19.42 9.7375C20.2133 10.3325 20.8608 11.0558 21.3625 11.9075C21.8642 12.7592 22.115 13.7217 22.115 14.795C22.115 15.915 21.8583 16.86 21.345 17.63C20.8317 18.4 20.1842 19.0242 19.4025 19.5025C18.6208 19.9808 17.7517 20.325 16.795 20.535C15.8383 20.745 14.905 20.85 13.995 20.85C13.295 20.85 12.5717 20.8092 11.825 20.7275C11.0783 20.6458 10.355 20.4767 9.655 20.22L9.655 25.47C9.655 26.45 9.68417 27.2608 9.7425 27.9025C9.80083 28.5442 9.9525 29.0633 10.1975 29.46C10.4425 29.8567 10.81 30.1483 11.3 30.335C11.79 30.5217 12.455 30.65 13.295 30.72L13.295 31.14ZM9.655 18.96C10.215 19.2633 10.7925 19.4675 11.3875 19.5725C11.9825 19.6775 12.5833 19.73 13.19 19.73C13.9133 19.73 14.6075 19.6192 15.2725 19.3975C15.9375 19.1758 16.515 18.8608 17.005 18.4525C17.495 18.0442 17.8858 17.5367 18.1775 16.93C18.4692 16.3233 18.615 15.635 18.615 14.865C18.615 13.955 18.4692 13.1267 18.1775 12.38C17.8858 11.6333 17.4833 11.0033 16.97 10.49C16.4567 9.97667 15.8442 9.58 15.1325 9.3C14.4208 9.02 13.645 8.88 12.805 8.88C12.385 8.88 11.8892 8.90917 11.3175 8.9675C10.7458 9.02583 10.1917 9.17167 9.655 9.405L9.655 18.96Z"/>
<path clip-path="url(#TextBounds_3)" d="M28.03 11.645C28.03 10.9917 27.9658 10.4842 27.8375 10.1225C27.7092 9.76083 27.5167 9.475 27.26 9.265C27.0033 9.055 26.6883 8.90333 26.315 8.81C25.9417 8.71667 25.51 8.62333 25.02 8.53L25.02 8.11C26 8.15667 26.9625 8.19167 27.9075 8.215C28.8525 8.23833 29.815 8.25 30.795 8.25C31.495 8.25 32.1892 8.23833 32.8775 8.215C33.5658 8.19167 34.26 8.15667 34.96 8.11L34.96 8.53C34.2133 8.6 33.595 8.71667 33.105 8.88C32.615 9.04333 32.23 9.27667 31.95 9.58C31.67 9.88333 31.4717 10.2742 31.355 10.7525C31.2383 11.2308 31.18 11.82 31.18 12.52L31.18 23.93C31.18 25.0267 31.3608 25.9542 31.7225 26.7125C32.0842 27.4708 32.58 28.0892 33.21 28.5675C33.84 29.0458 34.5692 29.3958 35.3975 29.6175C36.2258 29.8392 37.1067 29.95 38.04 29.95C39.5333 29.95 40.7583 29.7283 41.715 29.285C42.6717 28.8417 43.43 28.2992 43.99 27.6575C44.55 27.0158 44.935 26.3275 45.145 25.5925C45.355 24.8575 45.46 24.21 45.46 23.65L45.46 13.85C45.46 12.9167 45.4192 12.1292 45.3375 11.4875C45.2558 10.8458 45.0925 10.3208 44.8475 9.9125C44.6025 9.50417 44.2583 9.195 43.815 8.985C43.3717 8.775 42.8 8.62333 42.1 8.53L42.1 8.11C42.8233 8.15667 43.5408 8.19167 44.2525 8.215C44.9642 8.23833 45.6817 8.25 46.405 8.25C47.0117 8.25 47.6067 8.23833 48.19 8.215C48.7733 8.19167 49.3683 8.15667 49.975 8.11L49.975 8.53C49.485 8.6 49.0358 8.69333 48.6275 8.81C48.2192 8.92667 47.875 9.13667 47.595 9.44C47.315 9.74333 47.0992 10.1808 46.9475 10.7525C46.7958 11.3242 46.72 12.1 46.72 13.08L46.72 23.545C46.72 24.945 46.4692 26.1525 45.9675 27.1675C45.4658 28.1825 44.7833 29.0283 43.92 29.705C43.0567 30.3817 42.0475 30.8833 40.8925 31.21C39.7375 31.5367 38.5067 31.7 37.2 31.7C36.01 31.7 34.8667 31.5425 33.77 31.2275C32.6733 30.9125 31.6992 30.4342 30.8475 29.7925C29.9958 29.1508 29.3133 28.3517 28.8 27.395C28.2867 26.4383 28.03 25.33 28.03 24.07L28.03 11.645Z"/>
<path clip-path="url(#TextBounds_3)" d="M77.24 31L70.94 31C69.47 29.39 68.1108 27.7392 66.8625 26.0475C65.6142 24.3558 64.5 22.565 63.52 20.675C63.2867 20.675 62.9892 20.6517 62.6275 20.605C62.2658 20.5583 61.8925 20.5058 61.5075 20.4475C61.1225 20.3892 60.7492 20.3192 60.3875 20.2375C60.0258 20.1558 59.7283 20.08 59.495 20.01L59.495 25.47C59.495 26.45 59.5242 27.2608 59.5825 27.9025C59.6408 28.5442 59.7925 29.0633 60.0375 29.46C60.2825 29.8567 60.65 30.1483 61.14 30.335C61.63 30.5217 62.3067 30.65 63.17 30.72L63.17 31.14C62.2833 31.0933 61.3967 31.0583 60.51 31.035C59.6233 31.0117 58.7367 31 57.85 31C56.9867 31 56.135 31.0117 55.295 31.035C54.455 31.0583 53.615 31.0933 52.775 31.14L52.775 30.72C53.615 30.65 54.2683 30.5217 54.735 30.335C55.2017 30.1483 55.5575 29.8567 55.8025 29.46C56.0475 29.0633 56.1992 28.5442 56.2575 27.9025C56.3158 27.2608 56.345 26.45 56.345 25.47L56.345 13.78C56.345 12.8 56.3158 11.9892 56.2575 11.3475C56.1992 10.7058 56.0475 10.1867 55.8025 9.79C55.5575 9.39333 55.2017 9.10167 54.735 8.915C54.2683 8.72833 53.615 8.6 52.775 8.53L52.775 8.11C53.5217 8.15667 54.2683 8.19167 55.015 8.215C55.7617 8.23833 56.5083 8.25 57.255 8.25C57.5817 8.25 57.99 8.2325 58.48 8.1975C58.97 8.1625 59.4892 8.12167 60.0375 8.075C60.5858 8.02833 61.14 7.9875 61.7 7.9525C62.26 7.9175 62.7617 7.9 63.205 7.9C64.2083 7.9 65.235 8.02833 66.285 8.285C67.335 8.54167 68.28 8.95 69.12 9.51C69.96 10.07 70.6483 10.7817 71.185 11.645C71.7217 12.5083 71.99 13.535 71.99 14.725C71.99 15.5417 71.8442 16.265 71.5525 16.895C71.2608 17.525 70.87 18.0733 70.38 18.54C69.89 19.0067 69.3125 19.3917 68.6475 19.695C67.9825 19.9983 67.2883 20.22 66.565 20.36C66.8917 20.92 67.2767 21.55 67.72 22.25C68.1633 22.95 68.6592 23.6617 69.2075 24.385C69.7558 25.1083 70.3392 25.8258 70.9575 26.5375C71.5758 27.2492 72.2292 27.8908 72.9175 28.4625C73.6058 29.0342 74.3117 29.5125 75.035 29.8975C75.7583 30.2825 76.4933 30.51 77.24 30.58L77.24 31ZM59.495 18.82C60.545 19.2167 61.63 19.415 62.75 19.415C64.57 19.415 65.9817 18.995 66.985 18.155C67.9883 17.315 68.49 15.95 68.49 14.06C68.49 13.29 68.3442 12.5958 68.0525 11.9775C67.7608 11.3592 67.3583 10.8225 66.845 10.3675C66.3317 9.9125 65.7425 9.5625 65.0775 9.3175C64.4125 9.0725 63.7183 8.95 62.995 8.95C62.4117 8.95 61.84 8.97333 61.28 9.02C60.72 9.06667 60.1717 9.17167 59.635 9.335C59.5883 10.455 59.5533 11.5867 59.53 12.73C59.5067 13.8733 59.495 15.11 59.495 16.44L59.495 18.82Z"/>
<path clip-path="url(#TextBounds_3)" d="M78.325 30.72C79.165 30.65 79.8183 30.5217 80.285 30.335C80.7517 30.1483 81.1075 29.8567 81.3525 29.46C81.5975 29.0633 81.7492 28.5442 81.8075 27.9025C81.8658 27.2608 81.895 26.45 81.895 25.47L81.895 13.78C81.895 12.8 81.8658 11.9892 81.8075 11.3475C81.7492 10.7058 81.5975 10.1867 81.3525 9.79C81.1075 9.39333 80.74 9.10167 80.25 8.915C79.76 8.72833 79.095 8.6 78.255 8.53L78.255 8.11C79.235 8.15667 80.1858 8.19167 81.1075 8.215C82.0292 8.23833 82.98 8.25 83.96 8.25C84.73 8.25 85.5 8.23833 86.27 8.215C87.04 8.19167 87.7983 8.15667 88.545 8.11L88.545 8.53C87.7283 8.6 87.0867 8.72833 86.62 8.915C86.1533 9.10167 85.8033 9.39333 85.57 9.79C85.3367 10.1867 85.1908 10.7058 85.1325 11.3475C85.0742 11.9892 85.045 12.8 85.045 13.78L85.045 25.47C85.045 26.45 85.0742 27.2608 85.1325 27.9025C85.1908 28.5442 85.3425 29.0633 85.5875 29.46C85.8325 29.8567 86.2 30.1483 86.69 30.335C87.18 30.5217 87.8567 30.65 88.72 30.72L88.72 31.14C87.8333 31.0933 86.9467 31.0583 86.06 31.035C85.1733 31.0117 84.2867 31 83.4 31C82.5367 31 81.685 31.0117 80.845 31.035C80.005 31.0583 79.165 31.0933 78.325 31.14L78.325 30.72Z"/>
<path clip-path="url(#TextBounds_3)" d="M96.455 30.72C97.295 30.65 97.9483 30.5217 98.415 30.335C98.8817 30.1483 99.2375 29.8567 99.4825 29.46C99.7275 29.0633 99.8792 28.5442 99.9375 27.9025C99.9958 27.2608 100.025 26.45 100.025 25.47L100.025 9.23C98.7883 9.23 97.7558 9.27667 96.9275 9.37C96.0992 9.46333 95.3817 9.7025 94.775 10.0875C94.1683 10.4725 93.6375 11.0617 93.1825 11.855C92.7275 12.6483 92.2783 13.7333 91.835 15.11L91.38 14.97L91.87 8.11C92.85 8.15667 93.8183 8.19167 94.775 8.215C95.7317 8.23833 96.7 8.25 97.68 8.25L105.905 8.25C106.838 8.25 107.76 8.23833 108.67 8.215C109.58 8.19167 110.502 8.15667 111.435 8.11L111.925 14.97L111.47 15.11C111.027 13.7333 110.578 12.6483 110.123 11.855C109.667 11.0617 109.137 10.4725 108.53 10.0875C107.923 9.7025 107.194 9.46333 106.343 9.37C105.491 9.27667 104.435 9.23 103.175 9.23L103.175 25.47C103.175 26.45 103.204 27.2608 103.263 27.9025C103.321 28.5442 103.472 29.0633 103.718 29.46C103.963 29.8567 104.33 30.1483 104.82 30.335C105.31 30.5217 105.987 30.65 106.85 30.72L106.85 31.14C105.963 31.0933 105.077 31.0583 104.19 31.035C103.303 31.0117 102.417 31 101.53 31C100.667 31 99.815 31.0117 98.975 31.035C98.135 31.0583 97.295 31.0933 96.455 31.14L96.455 30.72Z"/>
<path clip-path="url(#TextBounds_3)" d="M112.275 8.11C113.255 8.15667 114.212 8.19167 115.145 8.215C116.078 8.23833 117.035 8.25 118.015 8.25C118.925 8.25 119.841 8.23833 120.763 8.215C121.684 8.19167 122.6 8.15667 123.51 8.11L123.51 8.53C123.23 8.57667 122.921 8.64667 122.583 8.74C122.244 8.83333 121.929 8.96167 121.638 9.125C121.346 9.28833 121.107 9.49833 120.92 9.755C120.733 10.0117 120.64 10.3267 120.64 10.7C120.64 10.9567 120.762 11.295 121.008 11.715C121.253 12.135 121.608 12.66 122.075 13.29L127.045 20.01L131.175 13.535C131.782 12.555 132.085 11.6567 132.085 10.84C132.085 10.1633 131.805 9.62083 131.245 9.2125C130.685 8.80417 130.055 8.57667 129.355 8.53L129.355 8.11C130.172 8.15667 130.994 8.19167 131.823 8.215C132.651 8.23833 133.473 8.25 134.29 8.25C135.037 8.25 135.777 8.23833 136.513 8.215C137.248 8.19167 137.988 8.15667 138.735 8.11L138.735 8.53C137.895 8.69333 137.148 8.99083 136.495 9.4225C135.842 9.85417 135.253 10.3442 134.728 10.8925C134.202 11.4408 133.736 12.0183 133.328 12.625C132.919 13.2317 132.54 13.78 132.19 14.27L127.395 21.27L127.395 26.415C127.395 27.2783 127.465 27.9725 127.605 28.4975C127.745 29.0225 127.972 29.4367 128.288 29.74C128.603 30.0433 129.028 30.265 129.565 30.405C130.102 30.545 130.778 30.65 131.595 30.72L131.595 31.14C130.545 31.0933 129.507 31.0583 128.48 31.035C127.453 31.0117 126.415 31 125.365 31C124.502 31 123.638 31.0117 122.775 31.035C121.912 31.0583 121.048 31.0933 120.185 31.14L120.185 30.72C120.955 30.65 121.602 30.545 122.128 30.405C122.653 30.265 123.072 30.0433 123.388 29.74C123.703 29.4367 123.924 29.0225 124.053 28.4975C124.181 27.9725 124.245 27.2783 124.245 26.415L124.245 20.92L117.91 12.8C117.583 12.38 117.245 11.9542 116.895 11.5225C116.545 11.0908 116.154 10.6825 115.723 10.2975C115.291 9.9125 114.795 9.5625 114.235 9.2475C113.675 8.9325 113.022 8.69333 112.275 8.53L112.275 8.11Z"/>
</g>
</g>
</svg>
